#!OML:ASF I:\Random Stuff\random\construction\7_22_03\Session 2\subj1.ASF
:FULLY-SPECIFIED
:DEGREES
542
root 3.91253 17.7343 -7.51694 16.7009 -32.5937 -1.44207
lowerback 9.80112 -0.199518 4.05531
upperback 3.95926 0.0808258 1.27852
thorax -1.37179 0.0424834 -0.965198
lowerneck -20.9433 3.19064 0.729909
upperneck 42.5124 5.13783 -2.2909
head 20.447 1.57415 -0.180697
rclavicle -7.81224e-014 1.31198e-014
rhumerus 13.1859 54.2823 -42.546
rradius 74.5831
rwrist 21.77
rhand -44.033 -319.766
rfingers 7.12502
rthumb -16.853 10.9457
lclavicle -7.81224e-014 1.31198e-014
lhumerus -23.1662 -62.5236 109.497
lradius 76.8933
lwrist 70.6931
lhand -27.2258 67.3753
lfingers 7.12502
lthumb -0.63819 -457.354
rfemur -24.7358 4.90508 15.9346
rtibia 16.2264
rfoot -6.53952 -4.86907
rtoes -10.5437
lfemur -20.7854 -4.66729 -13.0129
ltibia 22.7054
lfoot -16.1491 15.0527
ltoes -29.6162
543
root 3.90687 17.7345 -7.5173 16.8431 -32.4774 -1.51225
lowerback 9.72074 -0.212379 4.01575
upperback 3.99145 0.0556765 1.33095
thorax -1.29574 0.0308289 -0.886117
lowerneck -20.9158 3.26812 0.651702
upperneck 42.4157 5.29847 -2.29456
head 20.3741 1.62485 -0.131156
rclavicle -3.20043e-014 -1.63003e-014
rhumerus 13.8932 54.534 -41.7126
rradius 74.4025
rwrist 21.7513
rhand -44.4716 -318.008
rfingers 7.12502
rthumb -17.2752 12.74
lclavicle -3.20043e-014 -1.63003e-014
lhumerus -22.9513 -62.5299 109.395
lradius 76.8419
lwrist 70.7892
lhand -27.306 67.5617
lfingers 7.12502
lthumb -0.715656 -457.54
rfemur -24.7867 4.77925 16.0362
rtibia 16.1564
rfoot -6.54365 -4.82109
rtoes -10.0873
lfemur -20.9502 -4.75966 -12.8851
ltibia 22.7777
lfoot -16.1874 15.0767
ltoes -29.6488
544
root 3.90336 17.7329 -7.51834 16.9208 -32.333 -1.52976
lowerback 9.71476 -0.234453 3.97543
upperback 4.00998 0.0224522 1.35932
thorax -1.27493 0.0142738 -0.830653
lowerneck -20.8778 3.34053 0.562612
upperneck 42.431 5.43298 -2.2478
head 20.3701 1.668 -0.0615179
rclavicle 2.76311e-014 -1.63003e-014
rhumerus 14.4081 54.8279 -41.0098
rradius 74.1639
rwrist 21.7036
rhand -45.0266 -316.966
rfingers 7.12502
rthumb -17.8092 13.8295
lclavicle 2.76311e-014 -1.63003e-014
lhumerus -22.7475 -62.6164 109.32
lradius 76.7484
lwrist 70.8933
lhand -27.517 67.8795
lfingers 7.12502
lthumb -0.919459 -457.857
rfemur -24.7797 4.57919 16.1233
rtibia 16.0528
rfoot -6.47777 -4.78895
rtoes -10.8796
lfemur -21.1077 -4.88371 -12.8045
ltibia 22.8817
lfoot -16.1421 15.1018
ltoes -30.1421
545
root 3.89987 17.7307 -7.52151 16.9988 -32.1742 -1.51229
lowerback 9.73195 -0.187698 3.95124
upperback 4.06369 0.0800352 1.33099
thorax -1.22616 0.0440983 -0.852476
lowerneck -21.0682 3.30983 0.488079
upperneck 42.511 5.3849 -2.14909
head 20.4705 1.64838 -0.00567526
rclavicle -2.0276e-014 0
rhumerus 14.5205 54.813 -40.6528
rradius 74.0281
rwrist 21.8551
rhand -45.4425 -316.199
rfingers 7.12502
rthumb -18.2094 14.6331
lclavicle -2.0276e-014 0
lhumerus -22.4545 -63.0718 109.15
lradius 76.6825
lwrist 70.9636
lhand -27.6584 68.0157
lfingers 7.12502
lthumb -1.05595 -457.993
rfemur -24.7915 4.38452 16.1953
rtibia 15.9505
rfoot -6.38012 -4.83361
rtoes -12.2432
lfemur -21.3028 -4.924 -12.7596
ltibia 22.9909
lfoot -16.1636 14.9763
ltoes -30.0851
546
root 3.89142 17.7306 -7.52751 17.1212 -32.048 -1.58501
lowerback 9.75484 -0.152549 3.82385
upperback 4.10343 0.115397 1.38534
thorax -1.19688 0.0607272 -0.728588
lowerneck -21.1974 3.31248 0.285109
upperneck 42.5589 5.4145 -1.98592
head 20.5228 1.64695 0.122624
rclavicle -7.63333e-014 3.93594e-014
rhumerus 14.6659 54.8313 -40.2652
rradius 73.976
rwrist 22.1903
rhand -45.7968 -315.234
rfingers 7.12502
rthumb -18.5502 15.6308
lclavicle -7.63333e-014 3.93594e-014
lhumerus -22.2167 -63.3772 109.003
lradius 76.7029
lwrist 71.1969
lhand -27.8306 68.0736
lfingers 7.12502
lthumb -1.22228 -458.05
rfemur -24.8064 4.37788 16.3185
rtibia 15.8578
rfoot -6.31142 -4.98409
rtoes -12.7247
lfemur -21.4683 -4.79181 -12.642
ltibia 23.0716
lfoot -16.125 14.7617
ltoes -30.2859
547
root 3.89252 17.7323 -7.5308 17.2061 -31.7715 -1.65976
lowerback 9.85175 -0.191234 3.94762
upperback 4.13642 0.078815 1.38183
thorax -1.21642 0.0435494 -0.797677
lowerneck -21.0191 3.22978 0.430276
upperneck 42.2718 5.34396 -2.27439
head 20.2973 1.61535 -0.0665208
rclavicle -5.10877e-014 5.96354e-014
rhumerus 14.6728 54.7629 -40.0946
rradius 73.9552
rwrist 22.4833
rhand -46.2358 -314.078
rfingers 7.12502
rthumb -18.9725 16.8274
lclavicle -5.10877e-014 5.96354e-014
lhumerus -22.0274 -63.743 108.816
lradius 76.7482
lwrist 71.7499
lhand -28.125 68
lfingers 7.12502
lthumb -1.50667 -457.974
rfemur -24.7646 4.21835 16.4497
rtibia 15.7492
rfoot -6.29785 -5.06916
rtoes -12.9849
lfemur -21.6427 -4.88714 -12.4988
ltibia 23.1227
lfoot -16.0046 14.6257
ltoes -30.5913
548
root 3.88883 17.7361 -7.53363 17.2827 -31.5823 -1.69996
lowerback 9.90863 -0.14551 4.09448
upperback 4.19361 0.151131 1.29352
thorax -1.18366 0.082554 -0.979045
lowerneck -20.9516 3.11175 0.416477
upperneck 42.0159 5.20188 -2.35457
head 20.1059 1.55835 -0.134967
rclavicle 2.94201e-014 -3.29983e-014
rhumerus 14.4357 54.5256 -40.2093
rradius 73.9047
rwrist 22.5796
rhand -46.6098 -312.801
rfingers 7.12502
rthumb -19.3321 18.1399
lclavicle 2.94201e-014 -3.29983e-014
lhumerus -21.7842 -64.4533 108.565
lradius 76.7324
lwrist 72.361
lhand -28.3625 67.6485
lfingers 7.12502
lthumb -1.73603 -457.621
rfemur -24.712 4.17726 16.5191
rtibia 15.6004
rfoot -6.27414 -5.19214
rtoes -12.9426
lfemur -21.7798 -5.08567 -12.3695
ltibia 23.1634
lfoot -15.886 14.653
ltoes -31.1515
549
root 3.88177 17.7398 -7.53672 17.403 -31.4289 -1.75478
lowerback 9.89328 -0.0954311 4.18252
upperback 4.27171 0.21912 1.20051
thorax -1.08965 0.12034 -1.13169
lowerneck -21.0394 3.07722 0.363905
upperneck 41.9251 5.09216 -2.16619
head 20.0542 1.53838 -0.0535152
rclavicle -5.42682e-014 -7.55382e-015
rhumerus 14.3373 54.2394 -40.3354
rradius 73.6853
rwrist 22.7234
rhand -46.8457 -311.423
rfingers 7.12502
rthumb -19.5589 19.5404
lclavicle -5.42682e-014 -7.55382e-015
lhumerus -21.3141 -65.2234 108.078
lradius 76.6617
lwrist 72.9585
lhand -28.5716 67.1858
lfingers 7.12502
lthumb -1.93796 -457.157
rfemur -24.6875 4.18409 16.5974
rtibia 15.4257
rfoot -6.19497 -5.35722
rtoes -12.9498
lfemur -21.9363 -5.26263 -12.2199
ltibia 23.2157
lfoot -15.8618 14.7104
ltoes -31.2213
550
root 3.8759 17.7426 -7.54009 17.5757 -31.2351 -1.88607
lowerback 9.86161 -0.0918524 4.25115
upperback 4.34401 0.224725 1.18954
thorax -0.996143 0.126233 -1.18186
lowerneck -21.134 3.07377 0.349981
upperneck 41.9353 5.04138 -2.04139
head 20.0791 1.53409 0.00162373
rclavicle -1.80894e-014 4.21423e-014
rhumerus 14.4949 54.0177 -40.2851
rradius 73.3522
rwrist 22.9516
rhand -47.1217 -310.113
rfingers 7.12502
rthumb -19.8243 20.8782
lclavicle -1.80894e-014 4.21423e-014
lhumerus -20.6608 -65.8308 107.479
lradius 76.4963
lwrist 73.5428
lhand -28.6977 66.7863
lfingers 7.12502
lthumb -2.05974 -456.756
rfemur -24.6686 4.14618 16.7606
rtibia 15.2315
rfoot -6.08452 -5.49002
rtoes -13.2312
lfemur -22.1236 -5.23749 -12.0324
ltibia 23.276
lfoot -15.8735 14.5683
ltoes -30.9292
551
root 3.87338 17.7435 -7.54311 17.7591 -31.0532 -2.033
lowerback 9.84 -0.0648685 4.34812
upperback 4.40613 0.264652 1.18493
thorax -0.916619 0.149182 -1.2449
lowerneck -22.2171 3.70575 -1.17764
upperneck 43.2768 5.71912 0.322677
head 21.1053 1.81316 1.6688
rclavicle -1.35174e-014 9.54166e-015
rhumerus 14.6066 53.7366 -40.2909
rradius 73.0272
rwrist 23.0986
rhand -47.4612 -308.938
rfingers 7.12502
rthumb -20.1506 22.087
lclavicle -1.35174e-014 9.54166e-015
lhumerus -20.0246 -66.5329 106.929
lradius 76.3242
lwrist 73.9605
lhand -28.7993 66.7034
lfingers 7.12502
lthumb -2.15785 -456.672
rfemur -24.651 4.06466 16.9385
rtibia 15.0089
rfoot -5.95635 -5.5384
rtoes -13.5285
lfemur -22.3342 -5.21715 -11.8435
ltibia 23.3552
lfoot -15.833 14.4724
ltoes -31.2793
552
root 3.87317 17.7448 -7.54729 17.9051 -30.9106 -2.13375
lowerback 9.84824 -0.011662 4.45716
upperback 4.45978 0.341138 1.10644
thorax -0.85939 0.190863 -1.39499
lowerneck -21.3156 3.05271 0.439298
upperneck 42.0944 4.96418 -1.99844
head 20.2381 1.52137 -0.00721491
rclavicle 3.53837e-014 -4.01545e-014
rhumerus 14.5433 53.2761 -40.5203
rradius 72.7678
rwrist 23.3642
rhand -47.6071 -307.739
rfingers 7.12502
rthumb -20.2908 23.3008
lclavicle 3.53837e-014 -4.01545e-014
lhumerus -19.5177 -67.3464 106.376
lradius 76.2595
lwrist 74.2521
lhand -29.0545 66.8746
lfingers 7.12502
lthumb -2.40435 -456.841
rfemur -24.6212 3.95591 17.0629
rtibia 14.7673
rfoot -5.88601 -5.52193
rtoes -13.3178
lfemur -22.5397 -5.35714 -11.6727
ltibia 23.4542
lfoot -15.8723 14.4955
ltoes -31.2949
